<?xml version="1.0" encoding="utf-8"?>
<!-- Generator: Adobe Illustrator 24.1.2, SVG Export Plug-In . SVG Version: 6.00 Build 0)  -->
<svg version="1.1" id="Capa_1" xmlns="http://www.w3.org/2000/svg" xmlns:xlink="http://www.w3.org/1999/xlink" x="0px" y="0px"
	 viewBox="0 0 566 411" style="enable-background:new 0 0 566 411;" xml:space="preserve">
<style type="text/css">
	.st0{fill:#FFFFFF;}
	.st1{fill:#663399;}
</style>
<path class="st0" d="M544.7,76.1c-6.3-23.7-24.8-42.3-48.3-48.6C453.8,16,283,16,283,16S112.2,16,69.6,27.5
	c-23.5,6.3-42,24.9-48.3,48.6C9.9,119,9.9,208.4,9.9,208.4s0,89.4,11.4,132.3c6.3,23.7,24.8,41.5,48.3,47.8
	C112.2,400,283,400,283,400s170.8,0,213.4-11.5c23.5-6.3,42-24.2,48.3-47.8c11.4-42.9,11.4-132.3,11.4-132.3S556.1,119,544.7,76.1z
	 M227.2,289.6V127.2l142.7,81.2L227.2,289.6z"/>
<polygon class="st1" points="369.9,208.4 227.2,289.6 227.2,127.2 "/>
</svg>
